<svg xmlns="http://www.w3.org/2000/svg" width="288" height="288">
    <svg xmlns="http://www.w3.org/2000/svg" width="288" height="288" viewBox="0 0 24 24">
        <g fill="none" fill-rule="evenodd">
            <path fill="#fff" fill-opacity=".01" fill-rule="nonzero" d="M0 0h24v24H0z" class="colorFFF svgShape" />
            <path fill="#212529" d="M18 16c2.2092 0 4-1.7909 4-4 0-2.2091-1.7908-4-4-4" class="color000 svgShape" />
            <path stroke="#000" stroke-linejoin="round" stroke-width="1.5"
                d="M18 16c2.2092 0 4-1.7909 4-4 0-2.2091-1.7908-4-4-4" class="colorStroke212121 svgStroke" />
            <path fill="#212529" d="M6 8c-2.2091 0-4 1.7909-4 4 0 2.2091 1.7909 4 4 4" class="color000 svgShape" />
            <path stroke="#000" stroke-linejoin="round" stroke-width="1.5"
                d="M6 8c-2.2091 0-4 1.7909-4 4 0 2.2091 1.7909 4 4 4" class="colorStroke212121 svgStroke" />
            <path stroke="#000" stroke-linecap="round" stroke-linejoin="round" stroke-width="1.5"
                d="M6 16V8c0-3.3137 2.6863-6 6-6s6 2.6863 6 6v8c0 3.3137-2.6863 6-6 6"
                class="colorStroke212121 svgStroke" />
        </g>
    </svg>
</svg>