<svg xmlns="http://www.w3.org/2000/svg" viewBox="0 0 288 288">
    <svg xmlns="http://www.w3.org/2000/svg" viewBox="0 0 297 297">
        <path
            d="M216.979 150.445c-24.601 0-44.615 20.014-44.615 44.615s20.014 44.615 44.615 44.615c24.6 0 44.615-20.014 44.615-44.615s-20.014-44.615-44.615-44.615zm21.889 56.965c2.633 2.634 2.633 6.904 0 9.539-1.317 1.316-3.044 1.975-4.769 1.975s-3.452-.659-4.769-1.975l-12.35-12.35-12.35 12.35c-1.317 1.316-3.044 1.975-4.769 1.975s-3.452-.659-4.769-1.975c-2.633-2.634-2.633-6.904 0-9.539l12.35-12.35-12.352-12.35c-2.633-2.634-2.633-6.904 0-9.539 2.634-2.632 6.904-2.632 9.539 0l12.35 12.35 12.35-12.35c2.634-2.632 6.904-2.632 9.539 0 2.633 2.634 2.633 6.904 0 9.539l-12.35 12.35 12.35 12.35zM227.354 59.832c-.001-10.822-8.806-19.626-19.628-19.626H55.033c-10.822 0-19.626 8.804-19.626 19.626v18.244h191.948V59.832zm-10.375 77.125c1.233 0 2.454.052 3.668.128l2.716-45.521h-47.368v62.351c10.515-10.473 25.004-16.958 40.984-16.958zM103.885 13.488h54.99v13.229h13.488V6.744c0-3.725-3.019-6.744-6.744-6.744H97.14c-3.725 0-6.744 3.019-6.744 6.744v19.973h13.488V13.488z"
            class="color000 svgShape" />
        <path
            d="M175.994 273.748c0 5.393-4.372 9.764-9.764 9.764-5.393 0-9.764-4.371-9.764-9.764V91.564h-50.173v182.184c0 5.393-4.372 9.764-9.764 9.764-5.393 0-9.764-4.371-9.764-9.764V91.564H39.398l11.881 199.094c.213 3.562 3.163 6.342 6.731 6.342h146.739c3.569 0 6.519-2.78 6.732-6.342l2.243-37.591c-14.686-.815-27.934-7.104-37.73-16.862v37.543z"
            class="color000 svgShape" />
    </svg>
</svg>