<svg xmlns="http://www.w3.org/2000/svg" version="1.0" viewBox="0 0 95 95" class="w-25 mb-3">
    <path
        d="M27.3 7.5C24.5 8.7 24 9.4 24 12.3c0 3.2-.3 3.5-3.7 4.1C9.7 18.3 8.4 20.7 8.6 38.5c.2 13 2 35.2 3.2 40 1.4 5 5.2 6.9 14.5 7.3 17.2.7 18.4.6 21.4-1.3 1.5-1.1 3.1-1.9 3.5-1.8 1.2.4 27.6-1.7 29.1-2.3 2.7-1 3.5-5.5 4.6-23.9 2.2-35.9 2.1-36.2-9.4-37.1-5.5-.5-7.4-1.1-8.7-2.8-1.5-1.8-2.7-2.1-9.8-2.1-8.1 0-8.2 0-8.7-2.8-.4-1.7-1.7-3.4-3.4-4.2-3.5-1.9-13.4-1.9-17.6 0zm16.6 2.4c1.7 1.7 1.9 4.2 2.6 25.2.4 12.9.5 25.9.3 28.9l-.3 5.5-8.7.3-8.7.3-.5-4.3c-.9-7.3-2.9-54.9-2.3-55.5 1-.9 7-2.1 11.5-2.2 2.9-.1 4.8.5 6.1 1.8zm20.9 8.3c1.3 1.1 1.4 4.1.8 20.8-.4 10.7-.9 21-1.2 22.7l-.6 3.3H50.2l-.7-8.3c-.3-4.5-.5-15.2-.3-23.7l.3-15.4 2.5-.8c3.3-.9 10.9-.1 12.8 1.4zm-40.6 7.9c1.1 12.1 2.8 46.2 2.3 46.7-.2.3-2 .6-3.9.8-3.8.3-5.5-1.1-3.7-2.9 2.6-2.6.8-2.8-1.9-.2-1.6 1.6-3.2 2.6-3.5 2.3-1.9-1.9 4-10.8 7-10.8 1.2 0 1.5-1.5 1.5-6.6C22 48 20.8 45 17.9 45c-1.9 0-2 .6-1.8 9 .2 8.7-1 12.8-3.2 11.4-1.5-.9-1-9.3.7-12.6 1.5-2.8 1.5-3 0-2.5-2.3.9-2-1.4.7-5.4 3.7-5.5 4-6.6.9-3.2-6 6.8-5.8 1.8.3-7.3 2.5-3.7 4.3-6.9 4-7.2-.6-.6-.3-.9-4.6 5.3-3.4 5-3.4 5-3.7 2.1-.2-1.7.7-4.9 2.2-7.7 2.5-4.9 2.5-6.5 0-3.2-.7 1-1.4 1.3-1.4.7 0-2.5 7.4-6.7 10.5-6 .6.2 1.3 3.6 1.7 7.7zM81 23c1.1.6 2.2 2.6 2.6 4.6.6 3.4-1.2 35.9-2.2 39.6-.4 1.2-2.2 1.8-7 2.3-3.6.4-6.9.4-7.4-.1-.8-.8.7-43.1 1.6-46.2.4-1.5 9.7-1.7 12.4-.2zM20 54.6c0 2.4-.4 4.4-1 4.4-.5 0-1-2.3-1-5.1 0-3.1.4-4.8 1-4.4.6.3 1 2.6 1 5.1zm43.5 17.3c-.9 5.5-1.5 7.1-2.6 7.1-.5 0-.7-1.2-.3-2.8.6-2.7.6-2.7-2.4.8-3.7 4.3-5.2 3.4-2.2-1.4 2.8-4.6 1.2-4.7-1.8-.1-2.3 3.6-4.2 4.6-4.2 2.2 0-2.4 6-9.6 8.3-9.9 4.7-.8 5.9.2 5.2 4.1zM52.8 70c-.7 1.1-1.6 2-2 2-.5 0-.8-.9-.8-2 0-1.3.7-2 2-2 1.8 0 1.9.2.8 2zM81 72.1c0 1.5-5.2 6.9-6.7 6.9-1.9 0-1.6-1.4.7-3.5 1.1-1 2-2.3 2-2.9 0-.5-1.7.7-3.8 2.7-4.1 4-5.2 4.5-5.2 2.3 0-2.5 5.9-6.6 9.6-6.6 1.9 0 3.4.5 3.4 1.1zm-47 .6c0 .5-.9 1.9-2 3.3-1.7 2.2-1.9 2.3-2.5.7-1-2.5.1-4.7 2.5-4.7 1.1 0 2 .3 2 .7zm7-.2c0 1.1-7.3 10.5-8.1 10.5-.5 0-1.2-.7-1.5-1.5-.8-2 5.3-9.5 7.7-9.5 1 0 1.9.2 1.9.5zm6 .3c0 .5-.9 1.7-1.9 2.6-1.1 1-2.4 3-3.1 4.6-1.3 3.1-3.8 4.6-5.2 3.2C35.6 82 43.1 72 45.3 72c.9 0 1.7.4 1.7.8zM68 74c0 .5-.4 1-1 1-.5 0-1-.5-1-1 0-.6.5-1 1-1 .6 0 1 .4 1 1zm-40.7 4.2c.7 2.4.1 3.8-1.5 3.8-.5 0-.8-.7-.4-1.5.7-2-.4-1.9-1.9.1-.6.9-1.7 1.5-2.4 1.3-.9-.3-.6-1.3.9-3.2 2.6-3.3 4.6-3.5 5.3-.5zm18.3 3.6c-2.4 2.4-3.1.6-1-2.5 1.6-2.4 1.9-2.6 2.2-.9.2 1-.3 2.5-1.2 3.4zM19 79.5c0 .8-.7 1.5-1.5 1.5-1.6 0-2-1.2-.8-2.3 1.1-1.2 2.3-.8 2.3.8z" />
    <path
        d="M33.7 31.7c-.4.3-.7 3.7-.7 7.3 0 7.1 1.3 9.5 4.7 8.8 2.1-.4 3.8-8.4 2.8-13.5-.5-2.8-1-3.3-3.4-3.3-1.5 0-3.1.3-3.4.7zm4.7 2.9C39.2 36.7 38 46 37 46c-.4 0-1.1-.7-1.4-1.6-.8-2.1-.8-9.9.1-10.7 1.1-1.1 2.1-.8 2.7.9zM53.6 41.7c0 4.3.2 8.4.3 9 .1 1.5 4.7 1.8 5.5.4.3-.4.3-4.5-.1-9-.6-7.9-.6-8.1-3.2-8.1h-2.7l.2 7.7zm4.3 4c0 1.8-.3 3.3-.9 3.3-.6 0-.9-2.7-.9-6.3.1-4.9.3-5.6.9-3.2.4 1.6.8 4.5.9 6.2zM72.6 47.2c-2 2.8-2 4.2-.1 5.8 1.2 1 2 .9 4-.4 3.1-2 3.1-3.6 0-5.9-2.3-1.6-2.4-1.6-3.9.5zm3.8 2.9c-.7 1.1-3.4 1.2-3.4.1 0-1.4 1.1-2.1 2.6-1.5.8.3 1.1.9.8 1.4zM53 8.4c0 .2 2.1.9 4.8 1.5 2.6.6 5.7 1.3 7 1.7 1.2.3 2.2.2 2.2-.3s-2.3-1.5-5.1-2.1C56.8 8 53 7.7 53 8.4zM8.9 13c-1.3 1-2 1.9-1.6 2 1.1 0 6.7-2.9 6.7-3.5 0-1.2-3-.3-5.1 1.5zM72 13c0 .5.5 1 1 1 .6 0 1-.5 1-1 0-.6-.4-1-1-1-.5 0-1 .4-1 1zM2 29.2c0 6 1.1 10 2.3 8.2C5.1 36 3.8 23 2.9 23c-.5 0-.9 2.8-.9 6.2zM89.8 30c-.1 2.7-.2 5.7-.2 6.7-.1.9.5 1.8 1.2 2 .9.4 1.2-1.4 1.2-6.6 0-8.1-1.9-9.9-2.2-2.1zM89 45.9c0 1.2.5 2.1 1 2.1.6 0 1-.6 1-1.4 0-.8-.4-1.8-1-2.1-.5-.3-1 .3-1 1.4zM72.5 86.1c-2.2.4-6.8.8-10.2.8-3.5.1-6.3.5-6.3 1.1 0 1.3 2.2 1.2 13.5 0 4.9-.6 9.4-1.5 9.9-2 1.2-1.2-1.1-1.1-6.9.1zM29.8 88.7c.7.3 1.6.2 1.9-.1.4-.3-.2-.6-1.3-.5-1.1 0-1.4.3-.6.6zM44.5 89c-.3.6.5 1 1.9 1s2.8-.5 3.1-1c.3-.6-.5-1-1.9-1s-2.8.4-3.1 1z" />
</svg>