<svg xmlns="http://www.w3.org/2000/svg" xml:space="preserve" style="enable-background:new 0 0 458.018 458.018"
    viewBox="0 0 458.018 458.018">
    <path
        d="M307.631 425.737h.002c0 1.551-1.262 2.813-2.814 2.813H36.111c-1.552 0-2.814-1.262-2.814-2.813V32.282c0-1.552 1.262-2.814 2.814-2.814h268.708c1.552 0 2.814 1.262 2.814 2.814v27.411l29.442-28.412C336.543 13.943 322.283 0 304.819 0H36.111C18.311 0 3.829 14.481 3.829 32.282v393.455c0 17.799 14.481 32.281 32.281 32.281h268.708c17.8 0 32.281-14.481 32.281-32.281V287.234l-29.468 29.467v109.036z" />
    <path
        d="M55.319 345.509c0 8.137 6.597 14.734 14.734 14.734h51.527c-5.48-8.721-7.756-19.103-6.32-29.467H70.053v-.001c-8.137 0-14.734 6.597-14.734 14.734zM131.134 256.828H70.053c-8.137 0-14.734 6.597-14.734 14.734s6.597 14.734 14.734 14.734h54.697l6.384-29.468zM184.444 182.882H70.053c-8.137 0-14.734 6.597-14.734 14.734s6.597 14.734 14.734 14.734h84.923l29.468-29.468zM258.39 108.936H70.053c-8.137 0-14.734 6.597-14.734 14.734s6.597 14.734 14.734 14.734h158.869l29.468-29.468zM436.809 60.304c-24.123-24.836-63.396-24.718-87.457-.657-13.58 13.58-174.931 174.931-182.482 182.483-1.947 1.946-3.375 4.5-3.982 7.299l-18.249 84.244c-1.045 4.823.389 9.944 3.982 13.538 3.569 3.57 8.682 5.034 13.538 3.982l84.244-18.249c2.772-.601 5.386-2.066 7.299-3.982l182.482-182.483c23.921-23.919 23.881-62.243.625-86.175zM178.283 317.548l7.686-35.482 27.796 27.796-35.482 7.686zm237.064-191.906L243.283 297.706l-45.158-45.159L370.188 80.483c12.872-12.873 33.93-12.445 46.257 1.154 11.313 12.465 11.061 31.846-1.098 44.005z" />
</svg>